<svg xmlns="http://www.w3.org/2000/svg" width="1280" height="560" viewBox="0 0 1280 560"><rect width="1280" height="560" fill="white"/><style>text{font-family:Arial,sans-serif;fill:#233047}.title{font-size:25px;font-weight:bold}.sub{font-size:14px;fill:#64748b}.head{font-size:20px;font-weight:bold}.tick{font-size:13px;fill:#475569}</style><text x="640" y="40" text-anchor="middle" class="title">Fast vs Best — execution time distributions</text><text x="640" y="65" text-anchor="middle" class="sub">20 carton types · 3 runs per scenario · uncapped search · shared 0–120-second axis</text><text x="340" y="105" text-anchor="middle" class="head">Fast solver</text><line x1="90" y1="430" x2="610" y2="430" stroke="#e2e8f0"/><text x="82" y="435" text-anchor="end" class="tick">0</text><line x1="90" y1="358" x2="610" y2="358" stroke="#e2e8f0"/><text x="82" y="363" text-anchor="end" class="tick">30</text><line x1="90" y1="286" x2="610" y2="286" stroke="#e2e8f0"/><text x="82" y="291" text-anchor="end" class="tick">60</text><line x1="90" y1="214" x2="610" y2="214" stroke="#e2e8f0"/><text x="82" y="219" text-anchor="end" class="tick">90</text><line x1="90" y1="142" x2="610" y2="142" stroke="#e2e8f0"/><text x="82" y="147" text-anchor="end" class="tick">120</text><line x1="120" x2="120" y1="429.962728" y2="429.998176" stroke="#2563eb" stroke-width="2"/><line x1="108" x2="132" y1="429.998176" y2="429.998176" stroke="#2563eb" stroke-width="2"/><line x1="108" x2="132" y1="429.962728" y2="429.962728" stroke="#2563eb" stroke-width="2"/><rect x="105" y="429.968476" width="30" height="1" fill="#2563eb" fill-opacity=".25" stroke="#2563eb" stroke-width="2"/><line x1="105" x2="135" y1="429.974224" y2="429.974224" stroke="#2563eb" stroke-width="2"/><text x="120" y="453" text-anchor="middle" class="tick">5</text><circle cx="120" cy="429.998176" r="3.3" fill="#2563eb" stroke="white" stroke-width="1"/><circle cx="120" cy="429.974224" r="3.3" fill="#2563eb" stroke="white" stroke-width="1"/><circle cx="120" cy="429.962728" r="3.3" fill="#2563eb" stroke="white" stroke-width="1"/><line x1="182" x2="182" y1="429.838384" y2="429.88648" stroke="#2563eb" stroke-width="2"/><line x1="170" x2="194" y1="429.88648" y2="429.88648" stroke="#2563eb" stroke-width="2"/><line x1="170" x2="194" y1="429.838384" y2="429.838384" stroke="#2563eb" stroke-width="2"/><rect x="167" y="429.842284" width="30" height="1" fill="#2563eb" fill-opacity=".25" stroke="#2563eb" stroke-width="2"/><line x1="167" x2="197" y1="429.846184" y2="429.846184" stroke="#2563eb" stroke-width="2"/><text x="182" y="453" text-anchor="middle" class="tick">10</text><circle cx="182" cy="429.88648" r="3.3" fill="#2563eb" stroke="white" stroke-width="1"/><circle cx="182" cy="429.846184" r="3.3" fill="#2563eb" stroke="white" stroke-width="1"/><circle cx="182" cy="429.838384" r="3.3" fill="#2563eb" stroke="white" stroke-width="1"/><line x1="244" x2="244" y1="429.641152" y2="429.743032" stroke="#2563eb" stroke-width="2"/><line x1="232" x2="256" y1="429.743032" y2="429.743032" stroke="#2563eb" stroke-width="2"/><line x1="232" x2="256" y1="429.641152" y2="429.641152" stroke="#2563eb" stroke-width="2"/><rect x="229" y="429.666052" width="30" height="1" fill="#2563eb" fill-opacity=".25" stroke="#2563eb" stroke-width="2"/><line x1="229" x2="259" y1="429.690952" y2="429.690952" stroke="#2563eb" stroke-width="2"/><text x="244" y="453" text-anchor="middle" class="tick">15</text><circle cx="244" cy="429.743032" r="3.3" fill="#2563eb" stroke="white" stroke-width="1"/><circle cx="244" cy="429.690952" r="3.3" fill="#2563eb" stroke="white" stroke-width="1"/><circle cx="244" cy="429.641152" r="3.3" fill="#2563eb" stroke="white" stroke-width="1"/><line x1="306" x2="306" y1="429.462136" y2="429.501304" stroke="#2563eb" stroke-width="2"/><line x1="294" x2="318" y1="429.501304" y2="429.501304" stroke="#2563eb" stroke-width="2"/><line x1="294" x2="318" y1="429.462136" y2="429.462136" stroke="#2563eb" stroke-width="2"/><rect x="291" y="429.465976" width="30" height="1" fill="#2563eb" fill-opacity=".25" stroke="#2563eb" stroke-width="2"/><line x1="291" x2="321" y1="429.469816" y2="429.469816" stroke="#2563eb" stroke-width="2"/><text x="306" y="453" text-anchor="middle" class="tick">20</text><circle cx="306" cy="429.501304" r="3.3" fill="#2563eb" stroke="white" stroke-width="1"/><circle cx="306" cy="429.469816" r="3.3" fill="#2563eb" stroke="white" stroke-width="1"/><circle cx="306" cy="429.462136" r="3.3" fill="#2563eb" stroke="white" stroke-width="1"/><line x1="368" x2="368" y1="429.126304" y2="429.30952" stroke="#2563eb" stroke-width="2"/><line x1="356" x2="380" y1="429.30952" y2="429.30952" stroke="#2563eb" stroke-width="2"/><line x1="356" x2="380" y1="429.126304" y2="429.126304" stroke="#2563eb" stroke-width="2"/><rect x="353" y="429.1996" width="30" height="1" fill="#2563eb" fill-opacity=".25" stroke="#2563eb" stroke-width="2"/><line x1="353" x2="383" y1="429.272896" y2="429.272896" stroke="#2563eb" stroke-width="2"/><text x="368" y="453" text-anchor="middle" class="tick">30</text><circle cx="368" cy="429.30952" r="3.3" fill="#2563eb" stroke="white" stroke-width="1"/><circle cx="368" cy="429.272896" r="3.3" fill="#2563eb" stroke="white" stroke-width="1"/><circle cx="368" cy="429.126304" r="3.3" fill="#2563eb" stroke="white" stroke-width="1"/><line x1="430" x2="430" y1="402.037384" y2="405.150136" stroke="#2563eb" stroke-width="2"/><line x1="418" x2="442" y1="405.150136" y2="405.150136" stroke="#2563eb" stroke-width="2"/><line x1="418" x2="442" y1="402.037384" y2="402.037384" stroke="#2563eb" stroke-width="2"/><rect x="415" y="402.477388" width="30" height="1.5563760000000002" fill="#2563eb" fill-opacity=".25" stroke="#2563eb" stroke-width="2"/><line x1="415" x2="445" y1="402.917392" y2="402.917392" stroke="#2563eb" stroke-width="2"/><text x="430" y="453" text-anchor="middle" class="tick">50</text><circle cx="430" cy="405.150136" r="3.3" fill="#2563eb" stroke="white" stroke-width="1"/><circle cx="430" cy="402.917392" r="3.3" fill="#2563eb" stroke="white" stroke-width="1"/><circle cx="430" cy="402.037384" r="3.3" fill="#2563eb" stroke="white" stroke-width="1"/><line x1="492" x2="492" y1="420.308752" y2="428.570584" stroke="#2563eb" stroke-width="2"/><line x1="480" x2="504" y1="428.570584" y2="428.570584" stroke="#2563eb" stroke-width="2"/><line x1="480" x2="504" y1="420.308752" y2="420.308752" stroke="#2563eb" stroke-width="2"/><rect x="477" y="421.265128" width="30" height="4.130916000000013" fill="#2563eb" fill-opacity=".25" stroke="#2563eb" stroke-width="2"/><line x1="477" x2="507" y1="422.221504" y2="422.221504" stroke="#2563eb" stroke-width="2"/><text x="492" y="453" text-anchor="middle" class="tick">75</text><circle cx="492" cy="428.570584" r="3.3" fill="#2563eb" stroke="white" stroke-width="1"/><circle cx="492" cy="422.221504" r="3.3" fill="#2563eb" stroke="white" stroke-width="1"/><circle cx="492" cy="420.308752" r="3.3" fill="#2563eb" stroke="white" stroke-width="1"/><line x1="554" x2="554" y1="215.193328" y2="348.31372" stroke="#2563eb" stroke-width="2"/><line x1="542" x2="566" y1="348.31372" y2="348.31372" stroke="#2563eb" stroke-width="2"/><line x1="542" x2="566" y1="215.193328" y2="215.193328" stroke="#2563eb" stroke-width="2"/><rect x="539" y="222.024676" width="30" height="66.56019600000002" fill="#2563eb" fill-opacity=".25" stroke="#2563eb" stroke-width="2"/><line x1="539" x2="569" y1="228.85602400000002" y2="228.85602400000002" stroke="#2563eb" stroke-width="2"/><text x="554" y="453" text-anchor="middle" class="tick">100</text><circle cx="554" cy="348.31372" r="3.3" fill="#2563eb" stroke="white" stroke-width="1"/><circle cx="554" cy="228.85602400000002" r="3.3" fill="#2563eb" stroke="white" stroke-width="1"/><circle cx="554" cy="215.193328" r="3.3" fill="#2563eb" stroke="white" stroke-width="1"/><text x="345" y="486" text-anchor="middle" class="sub">Items per order</text><text x="960" y="105" text-anchor="middle" class="head">Best solver</text><line x1="710" y1="430" x2="1230" y2="430" stroke="#e2e8f0"/><text x="702" y="435" text-anchor="end" class="tick">0</text><line x1="710" y1="358" x2="1230" y2="358" stroke="#e2e8f0"/><text x="702" y="363" text-anchor="end" class="tick">30</text><line x1="710" y1="286" x2="1230" y2="286" stroke="#e2e8f0"/><text x="702" y="291" text-anchor="end" class="tick">60</text><line x1="710" y1="214" x2="1230" y2="214" stroke="#e2e8f0"/><text x="702" y="219" text-anchor="end" class="tick">90</text><line x1="710" y1="142" x2="1230" y2="142" stroke="#e2e8f0"/><text x="702" y="147" text-anchor="end" class="tick">120</text><line x1="740" x2="740" y1="429.913216" y2="429.966136" stroke="#0f766e" stroke-width="2"/><line x1="728" x2="752" y1="429.966136" y2="429.966136" stroke="#0f766e" stroke-width="2"/><line x1="728" x2="752" y1="429.913216" y2="429.913216" stroke="#0f766e" stroke-width="2"/><rect x="725" y="429.930376" width="30" height="1" fill="#0f766e" fill-opacity=".25" stroke="#0f766e" stroke-width="2"/><line x1="725" x2="755" y1="429.947536" y2="429.947536" stroke="#0f766e" stroke-width="2"/><text x="740" y="453" text-anchor="middle" class="tick">5</text><circle cx="740" cy="429.966136" r="3.3" fill="#0f766e" stroke="white" stroke-width="1"/><circle cx="740" cy="429.947536" r="3.3" fill="#0f766e" stroke="white" stroke-width="1"/><circle cx="740" cy="429.913216" r="3.3" fill="#0f766e" stroke="white" stroke-width="1"/><line x1="802" x2="802" y1="429.715288" y2="429.772096" stroke="#0f766e" stroke-width="2"/><line x1="790" x2="814" y1="429.772096" y2="429.772096" stroke="#0f766e" stroke-width="2"/><line x1="790" x2="814" y1="429.715288" y2="429.715288" stroke="#0f766e" stroke-width="2"/><rect x="787" y="429.72106" width="30" height="1" fill="#0f766e" fill-opacity=".25" stroke="#0f766e" stroke-width="2"/><line x1="787" x2="817" y1="429.726832" y2="429.726832" stroke="#0f766e" stroke-width="2"/><text x="802" y="453" text-anchor="middle" class="tick">10</text><circle cx="802" cy="429.772096" r="3.3" fill="#0f766e" stroke="white" stroke-width="1"/><circle cx="802" cy="429.726832" r="3.3" fill="#0f766e" stroke="white" stroke-width="1"/><circle cx="802" cy="429.715288" r="3.3" fill="#0f766e" stroke="white" stroke-width="1"/><line x1="864" x2="864" y1="429.374392" y2="429.483712" stroke="#0f766e" stroke-width="2"/><line x1="852" x2="876" y1="429.483712" y2="429.483712" stroke="#0f766e" stroke-width="2"/><line x1="852" x2="876" y1="429.374392" y2="429.374392" stroke="#0f766e" stroke-width="2"/><rect x="849" y="429.404356" width="30" height="1" fill="#0f766e" fill-opacity=".25" stroke="#0f766e" stroke-width="2"/><line x1="849" x2="879" y1="429.43432" y2="429.43432" stroke="#0f766e" stroke-width="2"/><text x="864" y="453" text-anchor="middle" class="tick">15</text><circle cx="864" cy="429.483712" r="3.3" fill="#0f766e" stroke="white" stroke-width="1"/><circle cx="864" cy="429.43432" r="3.3" fill="#0f766e" stroke="white" stroke-width="1"/><circle cx="864" cy="429.374392" r="3.3" fill="#0f766e" stroke="white" stroke-width="1"/><line x1="926" x2="926" y1="429.008536" y2="429.042352" stroke="#0f766e" stroke-width="2"/><line x1="914" x2="938" y1="429.042352" y2="429.042352" stroke="#0f766e" stroke-width="2"/><line x1="914" x2="938" y1="429.008536" y2="429.008536" stroke="#0f766e" stroke-width="2"/><rect x="911" y="429.017056" width="30" height="1" fill="#0f766e" fill-opacity=".25" stroke="#0f766e" stroke-width="2"/><line x1="911" x2="941" y1="429.025576" y2="429.025576" stroke="#0f766e" stroke-width="2"/><text x="926" y="453" text-anchor="middle" class="tick">20</text><circle cx="926" cy="429.042352" r="3.3" fill="#0f766e" stroke="white" stroke-width="1"/><circle cx="926" cy="429.025576" r="3.3" fill="#0f766e" stroke="white" stroke-width="1"/><circle cx="926" cy="429.008536" r="3.3" fill="#0f766e" stroke="white" stroke-width="1"/><line x1="988" x2="988" y1="428.13856" y2="428.282536" stroke="#0f766e" stroke-width="2"/><line x1="976" x2="1000" y1="428.282536" y2="428.282536" stroke="#0f766e" stroke-width="2"/><line x1="976" x2="1000" y1="428.13856" y2="428.13856" stroke="#0f766e" stroke-width="2"/><rect x="973" y="428.19352" width="30" height="1" fill="#0f766e" fill-opacity=".25" stroke="#0f766e" stroke-width="2"/><line x1="973" x2="1003" y1="428.24848" y2="428.24848" stroke="#0f766e" stroke-width="2"/><text x="988" y="453" text-anchor="middle" class="tick">30</text><circle cx="988" cy="428.282536" r="3.3" fill="#0f766e" stroke="white" stroke-width="1"/><circle cx="988" cy="428.24848" r="3.3" fill="#0f766e" stroke="white" stroke-width="1"/><circle cx="988" cy="428.13856" r="3.3" fill="#0f766e" stroke="white" stroke-width="1"/><line x1="1050" x2="1050" y1="382.939528" y2="385.462912" stroke="#0f766e" stroke-width="2"/><line x1="1038" x2="1062" y1="385.462912" y2="385.462912" stroke="#0f766e" stroke-width="2"/><line x1="1038" x2="1062" y1="382.939528" y2="382.939528" stroke="#0f766e" stroke-width="2"/><rect x="1035" y="383.422096" width="30" height="1.2616919999999823" fill="#0f766e" fill-opacity=".25" stroke="#0f766e" stroke-width="2"/><line x1="1035" x2="1065" y1="383.904664" y2="383.904664" stroke="#0f766e" stroke-width="2"/><text x="1050" y="453" text-anchor="middle" class="tick">50</text><circle cx="1050" cy="385.462912" r="3.3" fill="#0f766e" stroke="white" stroke-width="1"/><circle cx="1050" cy="383.904664" r="3.3" fill="#0f766e" stroke="white" stroke-width="1"/><circle cx="1050" cy="382.939528" r="3.3" fill="#0f766e" stroke="white" stroke-width="1"/><line x1="1112" x2="1112" y1="389.986864" y2="397.63804" stroke="#0f766e" stroke-width="2"/><line x1="1100" x2="1124" y1="397.63804" y2="397.63804" stroke="#0f766e" stroke-width="2"/><line x1="1100" x2="1124" y1="389.986864" y2="389.986864" stroke="#0f766e" stroke-width="2"/><rect x="1097" y="390.315964" width="30" height="3.825587999999982" fill="#0f766e" fill-opacity=".25" stroke="#0f766e" stroke-width="2"/><line x1="1097" x2="1127" y1="390.645064" y2="390.645064" stroke="#0f766e" stroke-width="2"/><text x="1112" y="453" text-anchor="middle" class="tick">75</text><circle cx="1112" cy="397.63804" r="3.3" fill="#0f766e" stroke="white" stroke-width="1"/><circle cx="1112" cy="390.645064" r="3.3" fill="#0f766e" stroke="white" stroke-width="1"/><circle cx="1112" cy="389.986864" r="3.3" fill="#0f766e" stroke="white" stroke-width="1"/><line x1="1174" x2="1174" y1="161.963032" y2="295.93768" stroke="#0f766e" stroke-width="2"/><line x1="1162" x2="1186" y1="295.93768" y2="295.93768" stroke="#0f766e" stroke-width="2"/><line x1="1162" x2="1186" y1="161.963032" y2="161.963032" stroke="#0f766e" stroke-width="2"/><rect x="1159" y="168.982816" width="30" height="66.98732399999997" fill="#0f766e" fill-opacity=".25" stroke="#0f766e" stroke-width="2"/><line x1="1159" x2="1189" y1="176.0026" y2="176.0026" stroke="#0f766e" stroke-width="2"/><text x="1174" y="453" text-anchor="middle" class="tick">100</text><circle cx="1174" cy="295.93768" r="3.3" fill="#0f766e" stroke="white" stroke-width="1"/><circle cx="1174" cy="176.0026" r="3.3" fill="#0f766e" stroke="white" stroke-width="1"/><circle cx="1174" cy="161.963032" r="3.3" fill="#0f766e" stroke="white" stroke-width="1"/><text x="965" y="486" text-anchor="middle" class="sub">Items per order</text><text x="19" y="300" transform="rotate(-90 19 300)" text-anchor="middle" class="sub">Solver runtime (seconds)</text><text x="640" y="525" text-anchor="middle" class="sub">Boxes show quartiles; centre line is median; whiskers show range; dots are the individual measurements</text><text x="640" y="545" text-anchor="middle" class="sub">Source: completed GitHub Actions benchmark run 94 (240 executions)</text></svg>