<svg xmlns="http://www.w3.org/2000/svg" width="1240" height="635" viewBox="0 0 1240 635"><rect width="1240" height="635" fill="white"/><g font-family="Arial,sans-serif"><text x="48" y="43" font-size="27" font-weight="700" fill="#173e49">Fast baseline + additional Best runtime</text><text x="48" y="70" font-size="15" fill="#526b73">20 carton types · median of 3 runs · 9 October 2026 · milliseconds (ms)</text><rect x="615" y="82" width="17" height="17" fill="#16818c"/><text x="642" y="96" font-size="15" fill="#294a53">Fast baseline</text><rect x="808" y="82" width="17" height="17" fill="#e69a4d"/><text x="835" y="96" font-size="15" fill="#294a53">Additional Best time (estimated)</text><line x1="78" y1="522" x2="1180" y2="522" stroke="#e0e9eb"/><text x="68" y="527" text-anchor="end" font-size="13" fill="#526d75">0</text><line x1="78" y1="454.5" x2="1180" y2="454.5" stroke="#e0e9eb"/><text x="68" y="459.5" text-anchor="end" font-size="13" fill="#526d75">4,000</text><line x1="78" y1="387" x2="1180" y2="387" stroke="#e0e9eb"/><text x="68" y="392" text-anchor="end" font-size="13" fill="#526d75">8,000</text><line x1="78" y1="319.5" x2="1180" y2="319.5" stroke="#e0e9eb"/><text x="68" y="324.5" text-anchor="end" font-size="13" fill="#526d75">12,000</text><line x1="78" y1="252" x2="1180" y2="252" stroke="#e0e9eb"/><text x="68" y="257" text-anchor="end" font-size="13" fill="#526d75">16,000</text><line x1="78" y1="184.5" x2="1180" y2="184.5" stroke="#e0e9eb"/><text x="68" y="189.5" text-anchor="end" font-size="13" fill="#526d75">20,000</text><line x1="78" y1="117" x2="1180" y2="117" stroke="#e0e9eb"/><text x="68" y="122" text-anchor="end" font-size="13" fill="#526d75">24,000</text><rect x="95" y="521.969135625" width="74" height="0.030864375" fill="#16818c"/><rect x="95" y="521.7734531250001" width="74" height="0.1956825" fill="#e69a4d"/><text x="132" y="509.77345312500006" text-anchor="middle" font-size="15" font-weight="650" fill="#24444d">13</text><text x="132" y="548" text-anchor="middle" font-size="15" fill="#385962">5</text><rect x="233" y="521.848378125" width="74" height="0.151621875" fill="#16818c"/><rect x="233" y="521.076110625" width="74" height="0.7722675000000001" fill="#e69a4d"/><text x="270" y="509.07611062499996" text-anchor="middle" font-size="15" font-weight="650" fill="#24444d">55</text><text x="270" y="548" text-anchor="middle" font-size="15" fill="#385962">10</text><rect x="371" y="521.65537875" width="74" height="0.34462125" fill="#16818c"/><rect x="371" y="520.0051725" width="74" height="1.65020625" fill="#e69a4d"/><text x="408" y="508.00517249999996" text-anchor="middle" font-size="15" font-weight="650" fill="#24444d">118</text><text x="408" y="548" text-anchor="middle" font-size="15" fill="#385962">15</text><rect x="509" y="521.492484375" width="74" height="0.5075156249999999" fill="#16818c"/><rect x="509" y="518.571489375" width="74" height="2.920995" fill="#e69a4d"/><text x="546" y="506.57148937500006" text-anchor="middle" font-size="15" font-weight="650" fill="#24444d">203</text><text x="546" y="548" text-anchor="middle" font-size="15" fill="#385962">20</text><rect x="647" y="520.486903125" width="74" height="1.5130968750000002" fill="#16818c"/><rect x="647" y="514.206736875" width="74" height="6.28016625" fill="#e69a4d"/><text x="684" y="502.20673687500005" text-anchor="middle" font-size="15" font-weight="650" fill="#24444d">462</text><text x="684" y="548" text-anchor="middle" font-size="15" fill="#385962">30</text><rect x="785" y="517.988458125" width="74" height="4.011541875" fill="#16818c"/><rect x="785" y="397.20684374999996" width="74" height="120.781614375" fill="#e69a4d"/><text x="822" y="385.20684374999996" text-anchor="middle" font-size="15" font-weight="650" fill="#24444d">7,395</text><text x="822" y="548" text-anchor="middle" font-size="15" fill="#385962">50</text><rect x="923" y="512.620250625" width="74" height="9.379749375" fill="#16818c"/><rect x="923" y="313.45297875000006" width="74" height="199.167271875" fill="#e69a4d"/><text x="960" y="301.45297875000006" text-anchor="middle" font-size="15" font-weight="650" fill="#24444d">12,358</text><text x="960" y="548" text-anchor="middle" font-size="15" fill="#385962">75</text><rect x="1061" y="507.4843275" width="74" height="14.5156725" fill="#16818c"/><rect x="1061" y="150.24346312499995" width="74" height="357.24086437500006" fill="#e69a4d"/><text x="1098" y="138.24346312499995" text-anchor="middle" font-size="15" font-weight="650" fill="#24444d">22,030</text><text x="1098" y="548" text-anchor="middle" font-size="15" fill="#385962">100</text><text x="620" y="586" text-anchor="middle" font-size="15" fill="#526b73">Items per order</text><text x="48" y="614" font-size="13" fill="#526b73">Orange = Best median minus separately measured Fast median; not directly timed inside Best. Labels = total Best median (ms).</text></g></svg>